<?xml version="1.0" encoding="UTF-8" standalone="no"?>
<svg
   viewBox="0 0 200 200"
   width="200"
   height="200"
   version="1.1"
   id="svg3"
   sodipodi:docname="cs-logo.svg"
   inkscape:version="1.4.2 (ebf0e940, 2025-05-08)"
   xmlns:inkscape="http://www.inkscape.org/namespaces/inkscape"
   xmlns:sodipodi="http://sodipodi.sourceforge.net/DTD/sodipodi-0.dtd"
   xmlns="http://www.w3.org/2000/svg"
   xmlns:svg="http://www.w3.org/2000/svg">
  <sodipodi:namedview
     id="namedview3"
     pagecolor="#ffffff"
     bordercolor="#000000"
     borderopacity="0.25"
     inkscape:showpageshadow="2"
     inkscape:pageopacity="0.0"
     inkscape:pagecheckerboard="0"
     inkscape:deskcolor="#d1d1d1"
     inkscape:zoom="4.14"
     inkscape:cx="116.30435"
     inkscape:cy="99.154589"
     inkscape:window-width="1920"
     inkscape:window-height="1022"
     inkscape:window-x="1512"
     inkscape:window-y="30"
     inkscape:window-maximized="1"
     inkscape:current-layer="svg3" />
  <defs
     id="defs1" />
  <!-- Background -->
  <rect
     x="2"
     y="2"
     width="196"
     height="196"
     rx="28"
     fill="#111111"
     id="rect1" />
  <rect
     x="2"
     y="2"
     width="196"
     height="196"
     rx="28"
     fill="none"
     stroke="#CFB991"
     stroke-width="1.5"
     opacity="0.25"
     id="rect2" />
  <!-- C: bottom-left, larger (United Sans Condensed Medium style) -->
  <g
     transform="matrix(0.72,0,0,0.72,26,73)"
     id="g2">
    <path
       d="M 160,0 V 28 H 50 C 38,28 30,38 30,50 v 60 c 0,12 8,22 20,22 h 110 v 28 H 40 C 16,160 0,142 0,120 V 40 C 0,18 16,0 40,0 Z"
       fill="#daaa00"
       id="path2" />
  </g>
  <!-- S: top-right, slightly smaller than C -->
  <g
     transform="matrix(0.4838763,0,0,0.4838763,92,15)"
     id="g3">
    <path
       d="M 148,-4.1332878 H 30 c -18,0 -30,14 -30,31.9999998 v 20 c 0,18 12,32 30,32 h 90 c 12,0 20,8 20,20 0,11.999998 -8,19.999998 -20,19.999998 H 0 v 32 h 126 c 26,0 46,-16 46,-42 v -9.999998 c 0,-26 -20,-40 -46,-40 H 50 c -12,0 -18,-8 -18,-18 0,-10 6,-18 18,-18 h 98 z"
       fill="#daaa00"
       id="path3" />
  </g>
</svg>
